<svg xmlns="http://www.w3.org/2000/svg" width="375" viewBox="0 0 375 375" height="375" version="1.0"><defs><clipPath id="a"><path d="M 124.011719 29 L 259 29 L 259 366 L 124.011719 366 Z M 124.011719 29"/></clipPath></defs><path fill="#7C0010" d="M 256.144531 310.015625 C 252.105469 299.484375 244.929688 290.859375 243.269531 279.464844 C 239.640625 254.613281 244.84375 223.285156 244.527344 198.148438 C 244.363281 185.082031 241.519531 149.203125 233.199219 129.957031 C 225.546875 112.246094 214.832031 101.25 207.75 83.246094 C 207.03125 81.414062 202.1875 63.859375 199.730469 51.917969 C 202.289062 49.445312 203.5625 46.046875 203.03125 41.234375 C 202.476562 36.222656 201.097656 33.03125 201.097656 33.03125 C 200.222656 31.011719 199.109375 29.132812 197.792969 27.527344 L 147.792969 33.042969 C 146.96875 34.882812 146.382812 36.945312 145.96875 39.113281 C 145.96875 39.113281 145.328125 42.523438 145.882812 47.535156 C 146.203125 50.425781 147.050781 52.671875 148.332031 54.410156 L 182.71875 54.246094 L 151.394531 61.085938 C 151.449219 74.03125 150.597656 87.035156 147.742188 99.691406 C 145.929688 107.738281 143.03125 115.457031 140.394531 123.257812 C 153.015625 122.777344 165.632812 122.25 178.242188 121.429688 C 190.601562 120.632812 202.953125 119.539062 215.320312 118.871094 C 189.777344 125.3125 163.828125 129.15625 137.679688 131.886719 C 136.851562 134.78125 136.121094 137.699219 135.566406 140.675781 C 130.320312 168.738281 135.855469 204.078125 144.535156 231.140625 C 146.085938 235.984375 148.039062 242.832031 149.894531 250.394531 C 162.222656 249.898438 174.539062 249.277344 186.867188 248.730469 C 201.199219 247.867188 215.511719 246.519531 229.851562 245.730469 C 204.175781 252.253906 178.132812 256.078125 151.859375 258.882812 C 154.65625 271.722656 156.71875 285.191406 155.925781 293.742188 C 154.15625 312.855469 145.878906 334.113281 156.652344 352.1875 C 166.917969 369.417969 188.046875 369.066406 205.480469 366.867188 C 221.425781 364.859375 246.378906 363.6875 255.292969 347.609375 C 263.011719 333.679688 260.824219 322.214844 256.144531 310.015625 Z M 256.144531 310.015625"/><path fill="#5D000D" d="M 229.792969 134.230469 C 223.25 116.445312 209.953125 102.421875 203.050781 84.871094 C 202.390625 83.203125 197.980469 67.1875 195.738281 56.300781 C 198.074219 54.046875 199.230469 50.949219 198.746094 46.554688 C 198.242188 41.992188 196.984375 39.078125 196.984375 39.078125 C 196.1875 37.234375 195.175781 35.519531 193.972656 34.0625 L 152.246094 38.660156 C 151.492188 40.339844 150.5 44.648438 150.421875 45.453125 L 180.835938 42.488281 C 181.964844 43.898438 182.910156 45.535156 183.648438 47.304688 C 184.851562 50.164062 185.5 53.566406 185.332031 56.679688 C 185.261719 58.089844 185.015625 59.527344 184.410156 60.820312 C 184.199219 61.269531 182.242188 63.535156 182.28125 63.746094 C 184.304688 74.167969 188.34375 89.503906 188.960938 91.105469 C 192.808594 101.226562 199.117188 109.976562 204.683594 119.148438 C 209.441406 118.8125 214.195312 118.484375 218.953125 118.226562 C 214.628906 119.316406 210.300781 120.320312 205.957031 121.269531 C 207.394531 123.722656 208.765625 126.214844 210.003906 128.78125 C 219.246094 147.851562 221.753906 170.316406 221.785156 191.300781 C 221.808594 208.609375 219.878906 228.042969 219.890625 245.976562 C 224.421875 245.648438 228.953125 245.335938 233.484375 245.089844 C 228.972656 246.234375 224.441406 247.292969 219.90625 248.285156 C 219.925781 250.605469 219.984375 252.914062 220.089844 255.175781 C 220.84375 271.234375 226.507812 290.347656 230.769531 305.707031 C 234.226562 318.171875 241.273438 325.5625 234.40625 337.628906 C 226.484375 351.539062 203.222656 354.960938 203.222656 354.960938 C 235.832031 354.867188 264.542969 343.589844 248.996094 307.351562 C 245.507812 299.214844 240.988281 292.035156 238.757812 282.890625 C 231.640625 253.667969 238.890625 219.25 238.519531 189.4375 C 238.289062 170.800781 236.269531 151.824219 229.792969 134.230469 Z M 229.792969 134.230469"/><path fill="#0082AD" d="M 233.570312 130.679688 C 231.390625 125.652344 228.96875 121.175781 226.460938 116.914062 C 222.84375 117.585938 219.109375 118.222656 215.300781 118.835938 C 189.996094 125.035156 163.75 128.960938 137.855469 131.613281 C 136.882812 134.898438 136.015625 138.222656 135.382812 141.613281 C 130.136719 169.675781 136.226562 204.804688 144.90625 231.867188 C 145.429688 233.507812 146.003906 235.386719 146.601562 237.433594 C 148.003906 241.507812 148.804688 246.210938 149.894531 250.394531 C 162.929688 249.886719 176.890625 249.117188 189.929688 248.539062 C 204.265625 247.675781 218.59375 246.4375 231.207031 245.507812 L 242.746094 244.832031 C 243.511719 229.050781 245.074219 212.988281 244.898438 198.875 C 244.730469 185.8125 241.890625 149.929688 233.570312 130.679688 Z M 233.570312 130.679688"/><path fill="#CE0927" d="M 194.929688 353.296875 C 166.179688 348.460938 176.964844 307.539062 178.21875 289.214844 C 179.003906 277.695312 176.621094 266.917969 173.523438 256.292969 C 168.265625 256.996094 163.003906 257.644531 157.726562 258.234375 C 161.363281 268.738281 164.507812 279.367188 163.726562 290.808594 C 162.332031 311.128906 151.949219 334.117188 169.183594 350.558594 C 179.207031 360.125 203.253906 354.703125 194.929688 353.296875 Z M 194.929688 353.296875"/><path fill="#CE0927" d="M 163.761719 122.25 C 163.839844 121.414062 163.921875 120.582031 164.007812 119.746094 C 164.9375 110.339844 165.210938 103.328125 165.949219 93.890625 C 166.542969 86.195312 164.171875 63.0625 164.171875 63.0625 C 160.914062 63.65625 159.535156 63.597656 156.355469 64.660156 C 156.355469 76.695312 155.820312 88.179688 155.605469 89.878906 C 154.1875 101.300781 151.640625 112.152344 149.085938 122.914062 C 153.980469 122.71875 158.871094 122.492188 163.761719 122.25 Z M 163.761719 122.25"/><path fill="#007497" d="M 229.292969 139.167969 C 227.179688 133.878906 224.746094 128.777344 222.21875 123.714844 C 215.511719 124.875 208.394531 125.949219 200.984375 126.921875 C 203.359375 131.714844 205.65625 136.550781 207.65625 141.554688 C 213.863281 157.09375 216.550781 174.066406 216.917969 190.894531 C 217.277344 206.867188 213.308594 222.121094 213.40625 237.917969 C 213.40625 238.175781 213.425781 238.425781 213.433594 238.679688 C 213.433594 238.679688 224.632812 238.109375 235.074219 236.296875 C 235.0625 236.039062 235.046875 235.789062 235.039062 235.53125 C 234.949219 219.734375 238.914062 204.480469 238.5625 188.507812 C 238.183594 171.683594 235.503906 154.707031 229.292969 139.167969 Z M 229.292969 139.167969"/><path fill="#0082AD" d="M 200.273438 24.324219 L 200.203125 23.6875 C 199.53125 17.648438 195.699219 10.1875 189.648438 10.855469 L 149.078125 15.328125 C 143.027344 15.992188 140.914062 24.109375 141.582031 30.148438 L 141.652344 30.785156 Z M 200.273438 24.324219"/><path fill="#007497" d="M 196.765625 9.382812 C 193.167969 5.757812 188.957031 6.234375 184.394531 6.796875 C 172.234375 8.292969 160.070312 9.921875 148.03125 12.1875 C 159.652344 12.355469 171.277344 11.910156 182.882812 11.375 C 184.804688 11.285156 186.785156 11.019531 188.707031 11.082031 C 192.765625 11.199219 194.730469 15.003906 195.578125 18.683594 C 177.046875 20.691406 158.335938 22.984375 140.285156 27.683594 C 160.929688 28.417969 181.660156 26.078125 202.136719 23.753906 C 201.476562 18.539062 200.667969 13.300781 196.765625 9.382812 Z M 196.765625 9.382812"/><path fill="#1695BC" d="M 142.4375 151.355469 C 143.253906 145.886719 144.410156 140.53125 145.648438 135.203125 C 151.988281 134.910156 158.679688 134.453125 165.625 133.835938 C 164.460938 138.886719 163.378906 143.957031 162.605469 149.132812 C 160.199219 165.191406 161.292969 181.890625 164.460938 197.957031 C 167.464844 213.210938 174.25 226.886719 177.453125 241.921875 C 177.503906 242.164062 177.535156 242.410156 177.585938 242.652344 C 177.585938 242.652344 167.289062 244.441406 157.421875 244.878906 C 157.371094 244.632812 157.335938 244.390625 157.285156 244.144531 C 154.078125 229.109375 147.296875 215.433594 144.292969 200.175781 C 141.125 184.109375 140.027344 167.417969 142.4375 151.355469 Z M 142.4375 151.355469"/><path fill="#340007" d="M 181.894531 120.664062 C 182.089844 120.652344 182.285156 120.636719 182.480469 120.621094 C 181.765625 111.320312 180.78125 102.050781 179.347656 92.832031 C 178.328125 86.28125 177.308594 79.3125 174.828125 73.125 C 174.273438 71.730469 173.632812 71.324219 173.445312 73.105469 C 173.132812 76.105469 173.421875 79.21875 173.613281 82.222656 C 174.433594 95.152344 174.90625 108.105469 175.148438 121.0625 C 177.398438 120.9375 179.644531 120.808594 181.894531 120.664062 Z M 181.894531 120.664062"/><path fill="#340007" d="M 201.136719 311.945312 C 200.515625 311.976562 201.757812 311.910156 201.136719 311.945312 Z M 201.136719 311.945312"/><path fill="#340007" d="M 190.511719 253.8125 C 191.578125 260.390625 192.355469 267.023438 193.433594 273.589844 C 194.695312 281.246094 196.027344 288.894531 197.453125 296.519531 C 197.761719 298.191406 199.390625 312.257812 201.160156 312.15625 C 204.78125 311.953125 198.75 258.59375 198.28125 253.734375 C 198.242188 253.34375 198.183594 252.964844 198.140625 252.570312 C 195.601562 253 193.058594 253.421875 190.511719 253.8125 Z M 190.511719 253.8125"/><path fill="#340007" d="M 160.199219 121.773438 C 163.1875 108.199219 164.777344 94.25 163.402344 80.382812 C 163.316406 79.503906 162.429688 71.335938 161.15625 71.480469 C 160.644531 71.53125 160.582031 72.773438 160.535156 73.109375 C 159.984375 77.195312 159.976562 81.378906 159.609375 85.492188 C 158.484375 98.042969 155.597656 110.0625 152.355469 122.109375 C 154.96875 122 157.582031 121.890625 160.199219 121.773438 Z M 160.199219 121.773438"/><path fill="#340007" d="M 166.203125 257.207031 C 167.550781 263.222656 168.570312 269.300781 169.066406 275.476562 C 169.703125 283.390625 169.402344 291.367188 169.125 299.292969 C 169.074219 300.816406 167.539062 314.84375 169.210938 315.148438 C 169.054688 315.113281 168.878906 315.089844 169.210938 315.148438 C 169.503906 315.199219 169.363281 315.171875 169.210938 315.148438 C 171.90625 315.628906 174.898438 290.363281 175.136719 287.765625 C 176.117188 277.113281 175.582031 266.695312 173.863281 256.253906 C 171.3125 256.585938 168.757812 256.902344 166.203125 257.207031 Z M 166.203125 257.207031"/><g clip-path="url(#a)"><path fill="#340007" d="M 252.910156 298.378906 C 249.738281 291.335938 245.089844 284.925781 242.664062 277.558594 C 240.964844 272.398438 240.644531 266.824219 240.355469 261.316406 C 239.449219 244.039062 241.34375 226.765625 242.027344 209.515625 C 242.707031 192.417969 241.285156 175.398438 238.386719 158.539062 C 236.328125 146.523438 233.429688 134.574219 227.851562 123.675781 C 220.929688 110.167969 210.878906 98.574219 204.269531 84.886719 C 199.542969 75.109375 197.136719 63.527344 194.3125 52.925781 C 199.800781 45.777344 196.730469 35.441406 191.300781 29.042969 C 194.121094 33.066406 195.527344 37.550781 195.863281 42.4375 C 196.226562 47.746094 190.660156 50.738281 191.414062 56.40625 C 191.972656 60.660156 193.402344 64.722656 194.335938 68.894531 C 196.046875 76.542969 198.6875 83.792969 202.015625 90.878906 C 205.15625 97.574219 208.9375 103.941406 212.796875 110.242188 C 217.089844 117.265625 221.238281 124.648438 224.089844 132.222656 C 229.625 146.960938 231.136719 163.710938 232.175781 179.304688 C 234.277344 210.902344 226.683594 242.417969 230.371094 273.957031 C 231.929688 287.308594 241.363281 298.207031 245.300781 310.839844 C 248.09375 320.039062 247.074219 328.925781 242.699219 336.824219 C 236.867188 346.050781 225.21875 348.851562 215.117188 350.554688 C 208.511719 351.664062 201.828125 352.355469 195.179688 353.167969 C 183.886719 354.542969 171.421875 354.6875 161.425781 348.53125 C 148.785156 340.75 147.882812 326.339844 149.632812 312.746094 C 150.527344 305.789062 151.859375 298.890625 152.78125 291.9375 C 154.449219 279.277344 151.6875 266.265625 148.8125 253.96875 C 145.605469 240.253906 140.640625 227.160156 136.765625 213.65625 C 131.910156 196.742188 128.78125 179.320312 128.210938 161.714844 C 127.769531 148.011719 129.871094 134.796875 133.785156 121.6875 C 133.351562 122.75 133.019531 123.617188 132.765625 124.320312 C 128.707031 134.882812 126.09375 145.6875 125.320312 157.046875 C 124.492188 169.167969 125.085938 181.304688 126.664062 193.347656 C 128.527344 207.511719 132.382812 221.027344 136.0625 234.773438 C 138.265625 243.007812 140.132812 251.347656 141.660156 259.738281 C 143.175781 268.042969 144.605469 276.652344 144.1875 285.125 C 143.75 293.953125 141.113281 302.660156 139.789062 311.359375 C 138.132812 322.265625 137.808594 334.328125 143.105469 344.386719 C 146.15625 350.191406 150.214844 355.152344 155.835938 358.679688 C 168.238281 366.46875 183.863281 365.882812 197.855469 364.308594 C 210.585938 362.886719 223.710938 361.933594 235.625 356.890625 C 245.46875 352.726562 252.40625 345.449219 256.109375 335.570312 C 260.757812 323.1875 258.21875 310.15625 252.910156 298.378906 Z M 252.910156 298.378906"/></g></svg>