<svg width="349" height="45" viewBox="0 0 349 45" fill="none" xmlns="http://www.w3.org/2000/svg">
<path d="M2 2C13.1767 2.20223 24.1432 4.59284 35.3261 4.59284C50.1869 4.59284 65.3021 5.049 80.1313 5.74522C112.843 7.28103 145.645 5.30176 178.351 7.04164C191.72 7.75287 205.285 7.12051 218.62 8.158C229.749 9.02385 241.589 9.68179 252.779 9.77853C269.613 9.92405 286.336 11.075 303.185 11.075C312.373 11.075 321.739 11.7232 331.049 11.7232C334.613 11.7232 338.177 11.7232 341.741 11.7232C343.184 11.7232 349.273 11.0595 346.092 12.5154C340.505 15.0723 335.868 16.7731 329.429 18.0612C318.831 20.1815 307.449 20.7981 296.52 20.7981C286.923 20.7981 277.326 20.7981 267.73 20.7981C261.857 20.7981 256.121 20.806 250.28 20.2939C241.316 19.5082 232.188 20.6026 223.202 19.8258C212.038 18.8607 200.039 18.8535 188.811 18.8535C177.47 18.8535 166.153 17.9677 154.837 17.5931C135.847 16.9644 116.789 15.891 97.8126 15.6124C86.7191 15.4496 75.5413 13.9067 64.4865 13.6678C55.3559 13.4705 46.2913 13.5984 37.3627 12.3354C24.6627 10.5388 12.9254 6.89832 2 2.64821" stroke="#026EC6" stroke-width="3" stroke-linecap="round"/>
<path d="M239.449 22.0945C243.97 30.5781 251.008 42.2224 264.443 42.8373C266.523 42.9325 271.942 43.6183 271.942 41.2167C271.942 39.0938 268.621 37.7985 267.359 36.0311C266.268 34.5021 263.737 32.1999 263.61 30.5213C263.453 28.448 263.085 25.1666 261.944 23.391" stroke="#026EC6" stroke-width="3" stroke-linecap="round"/>
<path d="M281.94 22.0945C281.94 26.9262 283.311 31.0136 287.957 34.2665C289.671 35.467 292.085 36.7708 294.067 37.6516C295.564 38.3174 299.084 40.2444 300.685 40.2444C303.359 40.2444 305.206 40.5808 307.119 39.0921C308.493 38.0234 304.959 35.7225 303.972 34.7346C300.348 31.1096 297.769 28.7146 297.769 24.0392" stroke="#026EC6" stroke-width="3" stroke-linecap="round"/>
<path d="M12.4221 4.07965C13.3421 5.28224 13.9979 6.77361 15.9956 6.85995C18.2736 6.95841 14.7375 5.87156 15.5418 5.31534C16.282 4.80347 20.0424 7.83252 17.7824 5.6684C16.8655 4.79046 20.1559 6.9836 21.4268 7.53296C22.2122 7.87241 19.1279 5.57275 19.9946 5.75666C21.2215 6.01699 22.1143 7.59129 23.242 8.11771C24.2435 8.58522 21.3888 4.802 22.0366 5.55807C23.119 6.82123 24.5469 7.95245 25.9221 9.02241C26.4 9.39417 26.3902 9.34503 26.0923 8.86795C25.4577 7.85138 24.9141 6.79378 24.2204 5.80079C23.7958 5.19285 24.741 6.02747 24.8302 6.10971C25.6274 6.84479 26.348 7.62593 27.0708 8.40456C27.28 8.62992 27.4491 8.78579 27.1133 8.42663C26.5438 7.81735 26.1839 7.04717 26.0072 6.30831C25.8354 5.58974 26.6208 6.47769 26.7588 6.61723C27.6275 7.4959 28.3648 8.43866 29.5099 9.1217C31.4883 10.3018 28.6509 6.79845 28.815 6.92615C29.3687 7.35694 29.8173 7.89139 30.2331 8.40456C30.3226 8.51505 31.2506 9.47033 30.8854 8.86795C30.3905 8.05163 29.8796 7.21011 29.2972 6.42967C28.4788 5.33317 30.2669 7.21603 30.4174 7.36747C31.1707 8.12504 31.9478 8.85697 32.7289 9.59612C33.2536 10.0926 33.2412 10.0352 32.7856 9.50785C32.2641 8.90421 31.8103 8.23047 31.4952 7.54399C31.1331 6.75521 32.7164 8.92367 33.3387 9.60715C33.761 10.071 34.7709 11.4664 34.7709 10.898C34.7709 10.0887 33.613 8.74313 33.1543 8.02944C33.0898 7.92901 32.4554 7.0819 32.5304 7.11371C33.5474 7.54529 34.2908 8.5381 34.9978 9.221C35.4051 9.6144 36.3025 10.8515 36.3025 10.3464C36.3025 9.98809 35.164 8.97467 34.9411 8.58109C34.3629 7.56035 35.9213 9.11328 36.1039 9.2872C36.9527 10.0953 37.6145 11.0609 38.6565 11.7365C39.7807 12.4654 37.0714 9.31745 37.9191 9.73955C39.0792 10.3172 39.8508 11.3077 40.7552 12.0896C41.0235 12.3215 42.4793 13.6217 41.7195 12.6412C41.0695 11.8024 40.4897 10.8949 40.032 9.98227C39.3096 8.54202 40.9033 10.0697 41.2657 10.4457C42.1012 11.3124 42.9352 12.1739 43.8466 12.9943C44.7968 13.8495 43.1489 11.541 43.0525 11.3835C42.2114 10.0093 41.3142 8.6635 40.4149 7.3123C40.09 6.82427 39.2001 5.28428 39.7626 6.81582C39.9176 7.23797 41.4499 10.4433 40.5283 10.1036C37.8235 9.10682 35.0985 8.1667 32.3177 7.30127C31.3313 6.99432 33.9474 8.3631 34.7993 8.85691C36.4854 9.83438 38.1015 10.8724 39.7767 11.8579C41.1271 12.6522 40.0752 11.7355 39.6775 11.2511C38.5037 9.82111 37.3524 8.39869 36.1323 6.99235C34.7113 5.3545 36.6291 7.30875 37.0257 7.83085C38.1498 9.31091 36.6195 6.84154 36.9831 6.4407C37.0707 6.34415 44.0832 10.3313 44.7684 10.6994C45.2145 10.939 46.1367 11.6477 45.3498 10.898C44.7554 10.3318 43.7187 9.42984 43.4212 8.73555C43.2413 8.31569 44.1966 9.38351 44.5698 9.71748C45.6567 10.6899 44.2269 9.19361 44.0451 8.98931C43.244 8.08897 42.5446 7.14133 41.833 6.19798C41.4424 5.68032 43.1083 7.27633 43.251 7.4116C44.2118 8.32201 45.1669 9.23973 46.0588 10.1919C47.0655 11.2666 45.3221 9.59568 45.0945 9.39753C44.3119 8.71617 43.5734 8.00366 42.8398 7.29024C42.019 6.49204 44.0405 7.94337 44.1019 7.99634C45.1194 8.87408 46.0764 9.78514 47.1366 10.6332C47.5631 10.9744 47.9691 11.3224 48.3703 11.6813C48.5063 11.803 49.0171 12.0234 48.8099 12.0234C47.8418 12.0234 46.0949 10.2943 45.4916 9.73955C44.8874 9.18402 44.5796 8.43223 44.0168 7.89705C43.5031 7.40855 46.6272 6.67207 47.1366 6.66136C49.0029 6.62212 50.7821 6.7648 52.6245 6.87099C57.7419 7.16591 62.908 7.05854 68.0532 7.05854C71.8651 7.05854 75.6318 7.39192 79.4261 7.65432C84.8043 8.02626 90.1712 8.35327 95.5497 8.69142C97.9043 8.83945 100.28 8.95531 102.64 9.03344C104.399 9.09168 109.623 9.57531 107.915 9.24306C104.776 8.63245 100.838 8.80498 97.6342 8.85691C91.4395 8.95732 85.3495 8.79397 79.1567 8.60315C70.4767 8.3357 61.7215 8.24275 53.0641 7.69845C51.0412 7.57127 49.0012 7.75974 46.9806 7.64329C45.8901 7.58044 43.0787 6.65333 44.2153 8.26113C45.3061 9.80413 47.0103 10.8318 49.1786 10.8318C51.3856 10.8318 53.7364 11.229 56.0421 11.229C57.6396 11.229 59.2712 11.2946 60.8635 11.1849C61.3883 11.1487 65.778 11.2615 63.5437 10.9201C58.8823 10.2077 54.1175 9.56678 49.4055 9.0886C45.3527 8.67732 57.5173 9.8907 61.5442 10.4346C64.7098 10.8622 67.8944 11.0754 71.0737 11.4166C71.6865 11.4823 73.4618 11.8102 72.9172 11.582C72.3014 11.3241 70.7804 11.3612 70.1945 11.3173C65.3728 10.9553 60.581 10.4346 55.7301 10.4346C54.6003 10.4346 57.9904 10.4212 59.1193 10.4567C62.8451 10.5738 66.531 11.1227 70.237 11.4166C73.2366 11.6544 76.2797 11.921 79.2985 11.9351C79.7135 11.937 82.193 11.9157 80.3479 11.7806C79.1195 11.6907 74.0861 11.4408 78.1357 11.6262C84.8938 11.9355 91.5776 11.7267 98.3291 11.4276C100.517 11.3307 102.681 11.2857 104.866 11.4166C106.606 11.5206 101.378 11.4164 99.6337 11.4386C95.8654 11.4867 92.138 11.6938 88.3742 11.4276C87.8231 11.3886 83.7159 11.229 86.6725 11.229C95.4573 11.229 104.186 11.7419 112.907 12.5309C120.187 13.1895 110.397 12.2943 116.31 12.8177C116.604 12.8437 116.898 12.8691 117.19 12.906C117.697 12.9702 117.6 12.9909 117.147 13.0053C112.758 13.1447 108.364 13.1532 103.973 13.3142C98.6473 13.5095 93.4032 13.4135 88.0906 13.4135C85.1809 13.4135 93.9083 13.5526 96.8117 13.7004C100.941 13.9105 105.151 13.8665 109.248 14.3623C111.283 14.6086 105.519 12.9981 103.718 12.222C102.814 11.8324 97.6623 9.58674 101.109 8.84588C103.451 8.34225 106.294 8.72073 108.653 8.89001C113.037 9.20466 117.424 9.4117 121.812 9.68438C127.411 10.0323 133.034 10.2338 138.645 10.4236C138.83 10.4299 140.23 10.4896 139.198 10.3905C135.496 10.0349 131.812 9.85488 128.08 9.83884C122.299 9.81399 104.978 9.49689 110.751 9.2541C119.069 8.90432 127.579 9.0392 135.88 9.48579C139.067 9.65724 142.267 10.0154 145.466 10.0154C146.367 10.0154 147.346 9.93269 145.948 9.62922C144.243 9.259 142.461 9.16392 140.701 9.0886C137.082 8.93373 133.482 8.65215 129.867 8.44869C129.663 8.43718 125.789 8.36843 126.847 8.44869C130.105 8.69599 133.358 8.99057 136.617 9.23203C141.972 9.6288 147.382 9.90567 152.755 10.1147C155.819 10.2339 159.291 10.4894 162.341 10.0374C164.235 9.75683 158.511 9.61363 156.584 9.61818C151.361 9.63053 146.132 10.3109 140.956 10.7877C134.676 11.3663 128.324 11.9237 122.082 12.7184C118.7 13.1491 115.306 13.3615 111.886 13.568C111.669 13.5811 110.054 13.6222 110.298 13.6011C112.164 13.4398 114.009 13.4295 115.885 13.4025C121.848 13.3166 127.864 13.0622 133.809 13.6121C134.737 13.6979 135.637 13.841 136.546 13.9983C137.102 14.0943 135.411 14.0692 134.845 14.1086C131.361 14.3506 120.923 15.0011 124.365 14.5168C132.5 13.3722 140.893 13.2708 149.125 13.6121C154.943 13.8534 160.703 14.3024 166.539 14.1968C167.418 14.1809 169.419 14.318 170.197 13.8548C170.261 13.8171 164.967 12.2848 164.667 12.222C161.506 11.5606 158.299 11.1687 155.109 10.6222C153.362 10.323 151.859 9.73387 150.202 9.26513C150.064 9.22605 152.584 8.53218 152.953 8.49283C154.85 8.29067 160.611 8.44869 158.697 8.44869C153.941 8.44869 149.23 8.73065 144.473 8.44869C144.402 8.44446 141.014 8.13645 141.992 8.3825C144.389 8.98595 146.813 9.5271 149.281 9.92711C149.908 10.0289 159.42 11.4398 159.42 10.5339C159.42 10.1206 157.993 9.55543 157.917 10.6111C157.884 11.0664 155.349 11.5286 154.598 11.7144C152.576 12.2151 149.269 12.222 147.097 12.222C144.703 12.222 141.838 13.0598 139.666 13.8107C138.906 14.0736 138.632 13.892 139.992 14.0534C142.949 14.4044 139.857 14.2079 138.517 14.2079C138.153 14.2079 133.246 14.2278 134.859 14.4285C137.233 14.724 139.544 15.1798 141.977 15.2008C145.262 15.2292 148.553 14.7309 151.847 15.0464C158.972 15.7286 166.204 14.998 173.359 15.8959C176.02 16.2297 179.104 16.1938 181.797 16.1938C187.671 16.1938 193.407 16.8323 199.239 17.2861C205.028 17.7364 210.833 17.8757 216.639 18.279C222.431 18.6813 228.17 18.9741 233.982 18.9741C237.891 18.9741 241.773 19.3713 245.696 19.3713C253.159 19.3713 260.622 19.3993 268.101 19.1837C276.537 18.9406 284.926 19.1727 293.343 19.1727C296.989 19.1727 300.637 18.8254 304.29 18.7755C307.741 18.7284 311.481 18.7354 314.898 18.3342C317.346 18.0467 319.867 18.2227 322.3 17.937C324.426 17.6874 327.577 17.9875 329.561 17.2861C330.855 16.8284 332.25 16.8024 333.531 16.3041C334.668 15.8621 335.731 15.2067 336.977 14.9912C339.215 14.6044 334.253 13.3193 333.545 13.1267C331.014 12.4375 328.409 12.6191 325.76 12.6191C318.446 12.6191 311.228 13.6121 303.922 13.6121C296.636 13.6121 289.552 12.5149 282.324 12.2109C272.878 11.8136 263.189 11.7694 253.736 12.5198C248.882 12.9052 244.374 12.1963 239.598 11.8248C235.045 11.4706 230.463 11.1691 225.928 10.7877C221.072 10.3792 216.159 10.8695 211.293 10.5891C205.519 10.2563 199.787 9.64674 194.049 9.04447C186.377 8.23909 178.675 8.10872 170.963 7.69845C167.163 7.49629 162.704 6.82529 158.952 7.55503C157.02 7.93069 155.639 9.48663 157.803 10.7215C159.111 11.4675 161.679 10.989 163.05 10.6773C163.975 10.4672 164.855 10.1521 165.787 9.9602C167.335 9.64142 165.616 9.55787 164.794 9.44166C162.43 9.1072 160.046 9.05527 157.661 9.2872C157.211 9.33095 153.828 9.48971 153.606 10.0374C153.201 11.0354 167.008 11.0546 167.886 11.0304C169.829 10.9769 171.77 10.8806 173.714 10.8318C175.283 10.7924 170.566 10.6338 169.006 10.7656C167.449 10.8972 165.532 11.5637 163.958 11.4276C162.51 11.3025 166.814 10.9271 168.269 10.8759C171.02 10.7791 173.864 10.882 176.579 11.2511C176.946 11.3011 181.124 11.8768 180.677 12.3323C179.815 13.2086 176.727 12.916 175.586 12.8839C172.578 12.7993 169.567 12.3373 166.624 11.8689C166.598 11.8649 164.603 11.6366 165.319 11.3945C167.354 10.706 169.51 10.4415 171.715 10.3574C173.093 10.3048 180.508 10.165 177.656 12.3544C176.635 13.1388 175.7 13.5888 174.253 13.6893C173.319 13.7542 171.322 13.7441 170.651 13.0825C170.155 12.5936 171.001 11.6613 171.473 11.3835C173.448 10.2217 176.455 10.3957 178.762 10.5229C181.636 10.6813 184.466 11.1188 187.242 11.7034C188.977 12.0686 189.723 12.4517 187.469 12.8067C184.433 13.2852 181.2 13.3416 178.11 13.4025C177.956 13.4055 175.597 13.6382 175.997 13.1598C178.558 10.0947 186.244 10.6481 189.994 11.4717C190.575 11.5994 193.658 12.2161 193.113 13.1487C192.128 14.8348 188.366 15.1284 186.406 15.267C184.734 15.3853 176.322 15.9077 179.188 12.7515C180.501 11.3047 183.699 11.2591 185.711 11.2842C189.817 11.3353 194.084 11.8887 198.105 12.5198C198.487 12.5798 201.433 13.2497 201.366 13.259C198.374 13.6824 195.085 13.4135 192.064 13.4135C190.658 13.4135 187.657 13.8601 186.321 13.3804C185.881 13.2226 187.146 12.9673 187.611 12.8619C189.173 12.5075 190.821 12.3624 192.433 12.233C196.603 11.8981 200.766 11.8804 204.94 12.1778C205.185 12.1953 210.875 12.6842 210.782 12.9722C210.624 13.464 204.008 13.6039 203.38 13.6562C201.987 13.7723 198.777 14.6308 197.396 14.1637C196.265 13.7814 199.653 13.3578 200.856 13.1487C204.113 12.5825 207.821 12.6803 211.109 13.0384C212.431 13.1824 214.981 13.599 212.002 13.8107C207.727 14.1145 203.436 14.4775 199.154 14.7154C199.079 14.7196 195.026 14.7737 195.637 14.3844C197.614 13.126 201.975 13.0655 204.344 12.9612C208.675 12.7705 213.059 13.0808 217.334 13.6121C218.441 13.7496 224.031 14.3748 219.773 14.6051C214.25 14.9037 208.707 14.9311 203.182 15.2119C199.041 15.4222 194.83 15.9713 190.674 15.6973C189.007 15.5874 190.634 15.2047 191.327 15.0464C195.275 14.1442 199.675 14.1145 203.749 14.0534C209.084 13.9734 214.421 14.2218 219.731 14.6051C222.977 14.8394 226.553 14.9408 229.7 15.6753C231.991 16.21 224.916 15.6267 222.524 15.6091C217.668 15.5733 212.812 15.5981 207.961 15.3994C207.255 15.3706 206.041 15.257 207.407 14.9581C211.301 14.1062 215.6 14.14 219.603 14.0093C223.862 13.8702 228.231 13.6255 232.479 14.0314C233.436 14.1228 236.54 14.3812 234.408 15.3332C230.994 16.8572 226.317 16.7707 222.524 16.8999C221.024 16.951 214.249 17.7114 217.447 15.2229C219.016 14.0027 221.341 13.513 223.432 13.1377C226.996 12.4977 231.462 12.0146 234.791 13.5459C238.073 15.0559 235.064 16.9364 232.649 17.2971C228.391 17.933 223.559 17.0606 219.376 16.4807C217.788 16.2605 213.719 15.6885 217.306 14.5278C221.054 13.3149 225.459 13.2001 229.459 13.3473C232.556 13.4613 236.066 13.5029 239.031 14.2961C242.425 15.2046 239.241 16.3841 237.442 17.0102C237.146 17.1135 233.033 18.1807 234.323 17.7164C236.797 16.8252 239.327 16.1592 242.065 16.0393C243.365 15.9825 244.802 16.0712 246.008 16.4917C247.56 17.0333 243.097 17.6389 242.959 17.6502C241.217 17.7921 238.9 18.0529 237.159 17.7384C235.891 17.5095 239.417 16.1873 239.598 16.1497C243.54 15.3294 255.816 14.9836 251.822 15.6311C251.108 15.7468 241.067 17.4103 240.988 16.8558C240.874 16.0581 243.143 15.3112 243.71 15.1015C247.161 13.8268 251.1 13.4729 254.885 13.5459C256.2 13.5713 258.17 13.5368 259.337 14.1637C260.494 14.7852 256.043 15.9091 255.849 15.9511C253.368 16.4877 250.792 16.7862 248.248 17.0764C246.692 17.254 245.55 17.4014 247.553 16.4476C250.149 15.2117 253.218 14.4506 256.274 14.4506C257.328 14.4506 260.854 14.5207 261.294 15.598C261.995 17.3112 249.586 17.4755 248.362 17.4295C248.31 17.4275 246.31 17.449 246.745 17.253C248.747 16.351 251.344 16.0032 253.58 15.7194C257.106 15.2719 260.702 15.1001 264.272 15.0905C264.467 15.09 269.636 15.2853 269.491 15.4436C268.737 16.2645 266.296 16.6504 265.18 16.9661C263.815 17.3523 262.334 17.8771 260.841 17.7715C260.074 17.7173 260.539 17.2439 260.869 16.9661C262.754 15.3808 265.294 14.2676 268.016 13.8548C269.396 13.6456 281.46 12.8201 280.197 15.918C279.665 17.2233 277.349 17.6298 275.872 17.8929C275.25 18.0038 271.445 18.7842 271.079 18.0473C270.529 16.9403 275.399 15.6702 276.099 15.4877C278.898 14.7582 281.838 14.537 284.778 14.6492C286.484 14.7144 286.942 14.9606 284.962 15.4105C281.877 16.1116 278.636 16.453 275.489 16.9551C274.511 17.1113 273.616 17.2335 272.639 17.0323C272.074 16.916 274.558 16.1783 274.766 16.1276C279.358 15.0063 284.433 15.3474 289.174 15.1015C291.678 14.9717 294.472 14.7727 296.973 15.0464C297.46 15.0997 298.184 15.2064 298.618 15.3994C298.946 15.5451 297.932 15.6498 297.569 15.7304C296.051 16.0678 294.512 16.3439 292.96 16.5689C290.584 16.9135 288.185 17.1957 285.799 17.4957C284.278 17.6869 287.552 16.6467 287.756 16.591C291.226 15.6414 294.753 15.7966 298.377 15.7966C298.672 15.7966 296.263 16.6388 295.853 16.8006C294.223 17.4441 292.616 17.8908 290.847 18.2349C289.551 18.487 293.391 17.576 294.704 17.3854C297.742 16.9446 300.821 16.8019 303.893 16.591C305.68 16.4683 307.462 16.2763 309.254 16.2048C310.281 16.1638 307.278 16.51 306.914 16.591C306.842 16.607 305.018 17.1127 305.056 17.1426C305.407 17.4158 309.311 16.3055 309.878 16.2379C313.405 15.817 317.418 16.4803 320.839 15.6973C321.816 15.4738 322.931 15.6087 323.945 15.598C325.842 15.5781 327.727 15.0023 329.575 15.0023C330.735 15.0023 331.879 14.4065 333.021 14.4065" stroke="#026EC6" stroke-width="3" stroke-linecap="round"/>
<path d="M341.444 13.2149C339.344 13.247 337.975 13.916 336.084 14.4065" stroke="#026EC6" stroke-width="3" stroke-linecap="round"/>
<path d="M293.967 22.1516C293.052 24.0192 293.93 25.9597 294.931 27.7122C295.092 27.993 294.889 28.309 295.101 28.5838C295.558 29.1761 294.733 27.2224 294.733 26.5317C294.733 25.6347 295.12 24.9381 295.442 24.0934C295.537 23.8439 295.1 21.469 295.229 22.3722C295.422 23.7241 294.881 25.3542 294.534 26.6751C294.075 28.4199 294.222 30.2032 294.222 31.9819C294.222 32.8961 293.655 34.5943 295.243 34.6629C297.01 34.7393 297.51 35.7556 298.944 36.2517C299.835 36.5596 301.231 36.9052 301.936 37.3991C302.215 37.5939 302.419 37.7902 302.773 37.8514C303.564 37.9883 302.044 36.9778 301.766 36.6489C300.393 35.0213 298.807 33.3786 297.597 31.684C297.056 30.9265 295.865 30.4733 295.13 29.7974C293.579 28.3714 294.452 25.9663 293.655 24.292C292.951 22.8124 289.936 21.5558 287.968 21.5558C286.628 21.5558 286.555 24.0855 285.799 23.0563C285.235 22.2892 285.033 24.499 285.033 24.6892C285.033 25.6773 285.479 26.7898 285.941 27.7122C286.175 28.1805 286.83 29.629 287.585 29.6981C288.184 29.7529 289.439 30.705 289.755 31.0883C289.976 31.3552 291.257 32.4579 290.904 32.0371C290.19 31.1881 290.245 30.1232 289.854 29.1906C289.372 28.0372 289.06 26.9916 288.734 25.8256C288.599 25.3406 288.569 24.8326 288.607 24.3361C288.654 23.7132 289.86 25.178 289.939 25.2849C290.885 26.558 291.467 28.0184 292.166 29.3782C292.931 30.8656 291.115 25.7696 292.492 24.5788C293.167 23.9955 294.164 23.275 295.115 22.946C295.521 22.8059 296.051 22.0539 296.519 22.1957C296.796 22.2794 297.427 22.7866 297.228 22.615C296.744 22.1962 295.205 19.1397 297.271 20.0774C298.836 20.7876 295.93 22.9766 297.157 23.7403C298.35 24.4824 296.319 28.9739 296.009 29.6981" stroke="#026EC6" stroke-width="3" stroke-linecap="round"/>
<path d="M292.691 34.0672C291.86 33.8475 290.931 33.6625 290.195 33.2728C289.643 32.9808 290.588 33.5895 290.776 33.7582C291.318 34.2447 291.907 35.9742 292.691 35.0601" stroke="#026EC6" stroke-width="3" stroke-linecap="round"/>
<path d="M241.129 20.3643C241.746 21.4967 241.97 22.5141 242.42 23.6521C242.726 24.4276 243.524 26.7609 243.058 26.0352C242.39 24.9959 241.631 23.8939 241.285 22.7584C240.843 21.3039 241.385 19.7714 241.385 18.3011C241.385 17.1338 241.216 15.8456 241.512 14.6933C241.822 13.4887 240.793 9.88807 241.441 11.0083C242.291 12.4777 242.335 14.5405 242.519 16.1166C242.811 18.6143 242.77 21.1465 242.973 23.6521C243.111 25.3579 243.36 27.0905 243.682 28.7824C244.008 30.4948 243.453 28.6668 243.285 27.9659C243.017 26.8485 241.928 24.3387 242.718 23.2328C242.88 23.0053 246.147 26.7967 246.433 27.1826C246.456 27.2142 247.109 28.1519 246.887 27.4915C246.523 26.4125 246.142 25.3533 245.852 24.2589C245.631 23.4293 245.072 22.4953 245.072 21.6441C245.072 20.944 246.097 22.9458 246.107 22.968C246.891 24.6658 247.766 26.5462 247.766 28.3742C247.766 30.0158 246.853 25.1679 246.475 23.5528C246.216 22.442 245.9 21.3381 245.61 20.2319C245.605 20.21 245.084 18.6301 245.582 19.2389C247.916 22.0927 248.709 25.6791 250.716 28.6831C251.643 30.0719 251.166 29.465 250.815 28.4073C250.237 26.6659 249.814 24.8843 249.354 23.1225C249.114 22.2019 248.264 19.5586 248.971 20.3201C249.787 21.1994 250.206 22.4995 250.73 23.4866C251.633 25.1892 252.498 26.9537 253.637 28.5728C254.646 30.0067 253.565 27.3069 253.509 27.1274C252.924 25.2482 252.49 23.2739 252.474 21.3352C252.474 21.2975 252.454 19.6159 252.871 19.6581C253.814 19.7539 255.27 22.8432 255.551 23.3211C257.112 25.9758 261.583 34.0082 259.905 31.3972C258.453 29.1381 257.295 26.742 256.359 24.3251C256.117 23.6996 255.175 21.9159 255.679 22.4384C256.344 23.1287 256.823 24.1089 257.352 24.8657C258.127 25.9734 258.874 27.0946 259.579 28.2307C260.46 29.6526 259.95 28.969 259.479 27.7784C258.788 26.0296 258.159 24.2614 257.607 22.4826C257.522 22.2085 257.279 21.4023 257.466 21.6441C258.415 22.8749 259.243 24.7344 259.479 26.1565C259.619 26.9983 259.254 26.0608 259.139 25.8366C258.713 25.0076 258.323 24.056 257.636 23.3321C257.134 22.8038 257.597 23.8527 257.607 23.8838C257.981 24.9666 258.482 26.0103 258.94 27.0723C259.639 28.6898 260.129 30.2952 260.642 31.9488C261.052 33.2692 261.568 34.3925 262.571 35.5014C264.214 37.3179 266.783 38.4015 268.186 40.3118C268.271 40.4275 268.801 40.6665 268.441 40.7752C267.733 40.9895 266.066 40.4673 265.364 40.3228C262.532 39.7395 259.473 37.4912 257.919 35.5676C256.144 33.3702 255.827 30.8497 254.289 28.6279C253.012 26.7827 252.969 31.2507 253.382 31.993C253.818 32.7777 248.646 30.6191 248.9 30.9338C249.823 32.0735 251.263 33.0086 252.105 34.1554C252.933 35.2827 254.111 36.2237 255.282 37.1343C256.15 37.8102 257.023 38.3594 258.09 38.8334C258.376 38.9605 258.754 39.4071 259.096 39.4071C259.426 39.4071 258.858 38.9295 258.742 38.6899C258.389 37.9634 258.232 37.1978 257.976 36.4503C257.53 35.1483 256.648 33.959 256.076 32.688C255.986 32.489 255.614 31.5837 256.047 31.7723C257.691 32.4867 258.613 34.1902 259.309 35.4573C259.814 36.3777 260.403 37.2607 261.039 38.1273C261.778 39.1327 259.399 36.1873 258.742 35.1484C257.296 32.8634 256.281 30.4947 255.424 28.0432C254.897 26.5386 254.028 25.0636 253.637 23.5417" stroke="#026EC6" stroke-width="3" stroke-linecap="round"/>
<path d="M259.508 35.8545C260.018 37.9376 260.444 39.8269 261.294 41.8123" stroke="#026EC6" stroke-width="3" stroke-linecap="round"/>
<path d="M7.68579 4.25122C10.9888 3.60674 12.9251 4.39122 16.172 5C26.6265 6.96024 37.0999 8.81805 47.7455 9.40948C56.7283 9.90853 66.1138 9.68557 75.0759 9.03509C78.2071 8.80782 81.3578 8.96305 84.4773 8.7231C86.0158 8.60475 87.1177 8.26514 88.554 8.7439" stroke="#1744AD" stroke-width="3" stroke-linecap="round"/>
<path d="M8.43459 4.62561C27.1331 10.8585 46.9395 11.4689 66.465 9.95026C70.0436 9.67192 73.813 10.5152 77.4055 10.595C81.5962 10.6882 85.7788 10.9902 89.9683 10.9902C91.0986 10.9902 89.915 10.9193 89.5107 10.8238C86.9938 10.2296 84.4683 9.74987 81.919 9.30548C76.1744 8.30413 69.878 8.47979 64.3018 6.70555C64.2916 6.70231 63.3662 6.49756 63.7819 6.49756C65.8271 6.49756 67.8725 6.50763 69.9177 6.49756C75.3305 6.47089 81.0402 5.52404 86.4324 6.12317C89.2826 6.43986 80.7843 7.12556 77.9463 7.53753C76.2115 7.78935 78.6808 7.92396 79.1942 8.01592C82.1151 8.53907 85.0649 8.80307 88.0132 9.11829C89.7814 9.30734 96.0532 9.79149 90.5507 9.28468C81.8491 8.48322 73.0496 8.3378 64.3226 7.82872C55.8205 7.33277 47.4013 8.367 38.9265 7.45433C33.1813 6.83561 27.3752 7.29998 21.6214 6.58076C18.9684 6.24913 16.2061 6.35873 13.6552 5.56158C12.126 5.0837 10.6392 4.70075 9.10017 4.16802C8.57771 3.98717 7.79813 3.56328 7.31142 3.50244C5.945 3.33164 8.43056 3.48524 8.80898 3.50244C10.771 3.59163 12.6509 4.25122 14.6536 4.25122C16.372 4.25122 18.4077 3.97325 20.0823 4.43842C21.4224 4.81069 23.1664 5.2377 24.5333 5.37439C26.8272 5.60378 28.928 6.74171 31.2724 6.87195C37.3988 7.21231 43.629 8.82012 49.7006 9.78387C60.2091 11.4519 70.9651 12.4878 81.607 12.4878C86.372 12.4878 91.0966 12.1134 95.8754 12.1134C100.863 12.1134 105.846 12.4878 110.851 12.4878C114.287 12.4878 117.3 11.362 120.564 10.6366C121.11 10.5154 121.854 10.2415 122.395 10.2415C126.172 10.2415 114.866 9.61077 111.101 9.30548C102.994 8.64821 94.7048 8.7718 86.682 7.53753C85.4615 7.34975 84.0519 7.45014 82.9381 6.95515C82.8439 6.91325 82.1659 6.83554 82.4805 6.89275C84.0792 7.18342 85.6853 7.24323 87.306 7.32954C94.7086 7.72376 102.1 8.36509 109.499 8.7231C116.766 9.07473 124.062 8.88627 131.276 9.90866C142.501 11.4996 153.654 11.9101 164.971 12.1342C169.394 12.2218 173.776 12.8622 178.199 12.8622C180.617 12.8622 183.089 12.8229 185.438 12.1966C185.875 12.08 189.506 11.8554 188.516 11.5726C182.474 9.84645 175.27 9.86707 169.048 9.86707C167.658 9.86707 166.294 9.82419 164.909 9.67987C163.81 9.56548 160.502 9.39271 161.602 9.49268C163.569 9.67155 165.538 9.89685 167.509 10.0335C173.025 10.4158 178.581 10.2338 184.107 10.4079C191.589 10.6435 199.061 10.9902 206.549 10.9902C210.092 10.9902 213.635 10.9902 217.178 10.9902C221.981 10.9902 226.721 10.9526 231.488 11.4478C231.919 11.4926 236.079 11.8926 233.755 11.531C227.635 10.579 221.506 11.7892 215.451 12.6542C214.769 12.7516 212.703 12.7393 212.082 13.2366C211.916 13.3694 212.476 13.404 212.685 13.4446C214.087 13.7171 215.514 13.8781 216.928 14.0685C223.806 14.9951 230.747 15.5169 237.603 16.6061C240.193 17.0176 242.776 18.2434 244.674 20.142C246.325 21.793 246.866 23.1358 247.274 25.3834C247.411 26.1325 247.097 26.9567 247.482 27.6506C247.853 28.3181 248.233 29.156 248.398 29.8969C249.264 33.7968 253.179 36.231 256.197 38.3207C257.756 39.3996 255.417 38.1314 254.949 37.7383C253.29 36.3446 252.112 34.7252 250.685 33.1208C249.663 31.9703 246.338 29.9955 246.338 28.3786C246.338 28.0882 249.784 29.8313 249.978 29.9593C251.551 30.994 253.26 31.9305 254.596 33.2664C255.553 34.2241 256.335 35.8904 257.591 36.4487C261.022 37.9736 263.851 42.8134 267.887 42.8134C271.179 42.8134 263.786 36.2336 262.832 35.492C260.748 33.8709 259.927 29.4367 259.088 27.089C258.608 25.7431 258.527 24.0364 258.527 22.5963C258.527 21.4996 259.561 22.4816 260.024 22.9707C260.701 23.685 261.117 25.6654 261.439 26.6314C261.823 27.7836 261.522 29.4659 261.522 30.6665C261.522 32.512 262.917 33.4554 263.935 34.764C265.735 37.078 267.167 39.4782 269.301 41.399C269.772 41.8231 270.26 41.8433 269.176 41.4822C267.459 40.9097 265.965 40.3734 264.309 39.631C258.57 37.0582 253.623 30.4078 250.727 25.0506C249.914 23.5468 249.482 21.6056 249.542 19.8924C249.601 18.1645 251.852 17.5507 253.202 16.9805C257.282 15.2578 261.662 13.2366 266.181 13.2366C267.992 13.2366 269.663 13.3807 271.443 13.5902C272.631 13.7299 273.812 13.8025 275 13.9854C275.835 14.1138 276.327 14.1956 277.163 14.2765C277.696 14.3281 279.004 13.902 278.765 14.3805C278.342 15.2267 272.303 16.2382 271.423 16.3773C268.698 16.8075 264.208 15.997 261.813 17.5213C261.268 17.8681 263.064 17.8636 263.706 17.9372C266.242 18.2283 268.742 18.4599 271.298 18.478C274.735 18.5024 278.177 18.5127 281.614 18.478C284.789 18.446 287.95 17.7292 291.099 17.7292" stroke="#026EC6" stroke-width="3" stroke-linecap="round"/>
<path d="M304.951 38.3207C303.497 37.2086 302.398 35.6793 301.02 34.5768C300.307 34.0064 299.752 34.8185 300.292 35.5128C301.331 36.8491 303.758 38.5414 300.292 37.5511C299.033 37.1912 298.359 36.5955 297.463 35.7C296.964 35.2001 294.502 33.2817 294.759 32.996C295.298 32.3976 296.936 30.7899 297.609 30.5209C298.479 30.1729 297.277 32.3653 297.11 33.2872C296.718 35.4433 298.289 36.6158 295.425 36.0951C293.04 35.6615 291.786 32.2571 289.227 31.9561C286.331 31.6154 286.315 25.7407 285.296 23.9067C283.805 21.224 285.514 25.8141 285.94 26.7146C286.777 28.4802 288.463 30.1024 290.059 31.2073C290.718 31.6634 291.41 31.9617 292.056 32.3304C293.13 32.9442 292.545 29.1006 292.409 28.4202C291.948 26.1158 291.676 24.1765 290.724 22.0347C290.116 20.6669 288.516 19.6458 287.272 20.6412C286.56 21.2102 286.088 20.3718 285.566 21.4731C285.032 22.6016 284.885 22.9707 283.611 22.9707" stroke="#026EC6" stroke-width="3" stroke-linecap="round"/>
<path d="M292.596 16.2317C297.509 14.3147 303.629 15.8573 308.778 15.8573C311.062 15.8573 313.321 15.4829 315.621 15.4829C316.771 15.4829 320.289 14.7458 321.05 13.9854" stroke="#026EC6" stroke-width="3" stroke-linecap="round"/>
</svg>
